<svg width="181" height="55" viewBox="0 0 181 55" fill="none" xmlns="http://www.w3.org/2000/svg">
<g clip-path="url(#clip0_6_2)">
<path d="M0.00390625 34.5609H57.5729V37.9649H0.00390625V34.5609Z" fill="#161615"/>
<path d="M120.449 34.5609H180.817V37.9649H120.449V34.5609Z" fill="#161615"/>
<path d="M0 39.0709H180.793V39.8689H0V39.0709Z" fill="#161615"/>
<path d="M9.0692 54.1049C9.06271 54.1825 9.02815 54.255 8.97201 54.309C8.91586 54.3629 8.84198 54.3945 8.7642 54.3979C7.68876 54.6013 6.60163 54.7373 5.5092 54.8049C2.6602 54.8049 0.158203 52.5899 0.158203 47.7759C0.158203 43.4579 2.4982 40.7909 5.2852 40.7909C6.4242 40.7909 7.6252 41.0179 8.7642 41.1079C8.8862 41.1079 9.0092 41.2889 9.0092 41.4009V44.9009C9.0092 45.1009 8.9272 45.2179 8.8462 45.2179C8.7462 45.2179 8.6842 45.1279 8.6462 44.9699C8.1582 42.7319 7.3642 41.7369 5.3302 41.7369C2.4422 41.7369 2.0962 45.7369 2.0962 48.1369C2.0962 50.5999 2.7872 53.8559 5.5542 53.8559C7.8332 53.8559 8.3622 52.8379 8.8292 50.7369C8.8339 50.6854 8.85648 50.6372 8.89302 50.6007C8.92956 50.5642 8.97774 50.5416 9.0292 50.5369C9.1292 50.5369 9.2132 50.6039 9.2132 50.8069L9.0692 54.1049Z" fill="#161615"/>
<path d="M15.3629 45.5049C13.2899 45.5049 12.9289 47.7689 12.9289 49.5719C12.9289 51.2949 13.1629 54.0389 15.5069 54.0389C17.5799 54.0389 17.9409 51.7749 17.9409 49.9719C17.9409 48.2499 17.7069 45.5049 15.3629 45.5049ZM15.4169 54.7799C12.4069 54.7799 11.3789 52.5159 11.3789 49.8129C11.3789 47.2129 12.4969 44.7639 15.4709 44.7639C18.4819 44.7639 19.4909 47.0279 19.4909 49.7329C19.4909 52.3329 18.3739 54.7799 15.4169 54.7799Z" fill="#161615"/>
<path d="M31.8939 54.5809H28.1089C27.9469 54.5809 27.8209 54.5409 27.8209 54.4409C27.8209 54.3209 27.9469 54.2209 28.1089 54.1999L28.7579 54.0999C28.9183 54.0645 29.0601 53.9716 29.1566 53.8388C29.2532 53.7059 29.2977 53.5423 29.2819 53.3789L29.2999 49.7729V47.7729C29.2999 47.6119 29.0999 47.5929 29.0299 47.7329L25.7659 54.2019C25.7432 54.2302 25.7145 54.2531 25.6818 54.2689C25.649 54.2846 25.6132 54.2928 25.5769 54.2928C25.5406 54.2928 25.5048 54.2846 25.4721 54.2689C25.4393 54.2531 25.4106 54.2302 25.3879 54.2019L22.3229 47.7729C22.3172 47.7468 22.3014 47.724 22.279 47.7094C22.2567 47.6948 22.2295 47.6896 22.2033 47.6948C22.1771 47.7001 22.154 47.7154 22.139 47.7374C22.124 47.7595 22.1182 47.7866 22.1229 47.8129L22.2489 53.2219C22.2669 53.8629 22.3569 54.0219 22.4649 54.1629C22.5909 54.3029 22.6989 54.3239 22.6989 54.4439C22.6989 54.5439 22.6269 54.5839 22.4649 54.5839H20.0649C19.9029 54.5839 19.7769 54.5439 19.7769 54.4439C19.7769 54.3239 19.9029 54.2439 20.0649 54.2029L20.5649 54.0829C20.721 54.0307 20.8546 53.9266 20.9433 53.788C21.0321 53.6494 21.0708 53.4845 21.0529 53.3209L21.2149 47.6919V46.1919C21.2298 46.0263 21.1853 45.8607 21.0893 45.725C20.9932 45.5892 20.852 45.492 20.6909 45.4509L20.0419 45.3509C19.8799 45.3319 19.7539 45.2309 19.7539 45.1099C19.7539 45.0099 19.8799 44.9699 20.0419 44.9699H22.4029C22.5829 44.9699 22.6549 45.0699 22.7089 45.2309L25.7019 51.7409C25.7133 51.7673 25.7321 51.7897 25.7561 51.8055C25.7801 51.8213 25.8082 51.8297 25.8369 51.8297C25.8656 51.8297 25.8937 51.8213 25.9177 51.8055C25.9417 51.7897 25.9605 51.7673 25.9719 51.7409L29.1939 45.2289C29.2659 45.0679 29.3379 44.9679 29.4999 44.9679H30.9409C31.1039 44.9679 31.1769 45.0089 31.1769 45.1079C31.1769 45.2289 31.0509 45.2689 30.9409 45.3889C30.8149 45.5289 30.7249 45.7299 30.7249 46.3309L30.7069 49.7759L30.7249 53.3819C30.7091 53.5453 30.7536 53.7089 30.8502 53.8418C30.9467 53.9746 31.0886 54.0675 31.2489 54.1029L31.8979 54.2029C32.0599 54.2239 32.1859 54.3239 32.1859 54.4439C32.1859 54.5439 32.0599 54.5839 31.8979 54.5839" fill="#161615"/>
<path d="M36.9611 45.687H36.1501C36.0501 45.6846 35.953 45.7205 35.8786 45.7875C35.8042 45.8544 35.7583 45.9472 35.7501 46.047V49.529C35.7563 49.6078 35.791 49.6817 35.8477 49.7369C35.9043 49.7921 35.9791 49.8248 36.0581 49.829H36.8161C38.2771 49.829 39.4301 49.288 39.4301 47.605C39.4301 46.363 38.7631 45.682 36.9601 45.682M37.0681 50.509H36.0611C35.9849 50.5121 35.9123 50.5419 35.8559 50.5933C35.7996 50.6447 35.7632 50.7144 35.7531 50.79L35.7711 53.374C35.7649 53.5381 35.8154 53.6994 35.9141 53.8307C36.0128 53.962 36.1537 54.0553 36.3131 54.095L36.7811 54.195C36.9251 54.235 37.0691 54.315 37.0691 54.436C37.0691 54.536 36.9431 54.576 36.7811 54.576H33.8421C33.6801 54.576 33.5541 54.536 33.5541 54.436C33.5541 54.315 33.6801 54.236 33.8421 54.195C33.9968 54.1539 34.1314 54.0583 34.2211 53.9258C34.3108 53.7933 34.3495 53.6328 34.3301 53.474L34.3481 49.768L34.3301 46.162C34.346 45.9985 34.3014 45.8349 34.2049 45.7021C34.1083 45.5693 33.9665 45.4764 33.8061 45.441L33.1571 45.341C32.9951 45.32 32.8691 45.221 32.8691 45.1C32.8691 45 32.9951 44.96 33.1571 44.96H37.5921C39.3921 44.96 40.9641 45.701 40.9641 47.665C40.9641 49.265 39.6841 50.509 37.0701 50.509" fill="#161615"/>
<path d="M45.128 46.8839C45.1223 46.8668 45.1113 46.852 45.0967 46.8415C45.0821 46.831 45.0645 46.8254 45.0465 46.8254C45.0285 46.8254 45.011 46.831 44.9964 46.8415C44.9817 46.852 44.9708 46.8668 44.965 46.8839L43.614 50.9299C43.6054 50.9476 43.6016 50.9672 43.6029 50.9867C43.6042 51.0063 43.6107 51.0252 43.6216 51.0415C43.6326 51.0579 43.6476 51.071 43.6652 51.0797C43.6828 51.0883 43.7024 51.0922 43.722 51.0909H46.516C46.606 51.0909 46.642 51.0099 46.624 50.9299L45.128 46.8839ZM50.104 54.5759H46.75C46.588 54.5759 46.462 54.5359 46.462 54.4359C46.462 54.3159 46.588 54.2159 46.75 54.1759L47.166 54.0759C47.4 54.0159 47.544 53.9149 47.544 53.7159C47.5408 53.62 47.5226 53.5252 47.49 53.4349L46.948 51.9519C46.9351 51.915 46.9106 51.8833 46.8782 51.8615C46.8457 51.8397 46.8071 51.8289 46.768 51.8309H43.451C43.409 51.8257 43.3664 51.8348 43.3301 51.8568C43.2938 51.8787 43.266 51.9122 43.251 51.9519L42.673 53.6939C42.6363 53.7973 42.6121 53.9047 42.601 54.0139C42.6023 54.0631 42.6162 54.1111 42.6414 54.1533C42.6667 54.1955 42.7023 54.2305 42.745 54.2549C42.799 54.2949 42.871 54.3549 42.871 54.4349C42.871 54.5549 42.727 54.5749 42.565 54.5749H40.62C40.458 54.5749 40.332 54.5349 40.332 54.4349C40.332 54.3149 40.476 54.2549 40.62 54.1939L40.962 54.0739C41.0694 54.0441 41.1688 53.9909 41.2532 53.9181C41.3376 53.8453 41.4048 53.7547 41.45 53.6529L44.766 44.9189C44.802 44.8189 45.036 44.7589 45.236 44.7589C45.436 44.7589 45.668 44.8189 45.722 44.9189L49.202 53.6729C49.2435 53.7768 49.3093 53.8693 49.3938 53.9425C49.4784 54.0158 49.5793 54.0677 49.688 54.0939L50.104 54.1939C50.247 54.2339 50.391 54.3149 50.391 54.4349C50.391 54.5349 50.247 54.5759 50.104 54.5759Z" fill="#161615"/>
<path d="M60.7412 45.365L60.2912 45.465C59.9672 45.545 59.7672 45.785 59.7502 46.265L59.7142 49.79L59.7312 54.598C59.7502 54.858 59.2812 54.839 59.2312 54.738L53.7122 47.489C53.6402 47.389 53.5502 47.429 53.5502 47.529L53.6952 53.218C53.7122 53.859 53.7842 54.018 53.9112 54.159C54.0192 54.299 54.1452 54.32 54.1452 54.44C54.1452 54.54 54.0732 54.58 53.9112 54.58H51.5302C51.3682 54.58 51.2422 54.54 51.2422 54.44C51.2422 54.32 51.3682 54.24 51.5302 54.201L52.0362 54.08C52.1919 54.0278 52.3251 53.9238 52.4135 53.7853C52.502 53.6468 52.5403 53.4823 52.5222 53.319L52.6482 47.529V46.187C52.6608 46.0221 52.6156 45.8579 52.5203 45.7227C52.4251 45.5875 52.2857 45.4896 52.1262 45.446L51.7102 45.346C51.5482 45.305 51.4222 45.225 51.4222 45.105C51.4222 45.005 51.5482 44.965 51.7102 44.965H53.3102C53.3666 44.9639 53.4226 44.9739 53.4751 44.9945C53.5276 45.0151 53.5756 45.0459 53.6162 45.085L58.5022 51.516C58.6102 51.676 58.7362 51.616 58.7362 51.476L58.7542 49.793L58.7002 46.287C58.7002 45.787 58.4842 45.506 58.1592 45.445L57.6172 45.345C57.4552 45.304 57.3292 45.224 57.3292 45.104C57.3292 45.004 57.4552 44.964 57.6172 44.964H60.7362C60.8982 44.964 61.0242 45.004 61.0242 45.104C61.0242 45.224 60.8982 45.324 60.7362 45.364" fill="#161615"/>
<path d="M71.9352 54.581H68.1492C67.9872 54.581 67.8612 54.541 67.8612 54.441C67.8612 54.321 67.9872 54.221 68.1492 54.2L68.7982 54.1C68.9586 54.0646 69.1004 53.9717 69.1969 53.8388C69.2935 53.706 69.3381 53.5424 69.3222 53.379L69.3402 50.114C69.3397 50.0842 69.3286 50.0556 69.3087 50.0334C69.2889 50.0111 69.2618 49.9968 69.2322 49.993H65.0662C65.0365 49.9966 65.0091 50.0108 64.9891 50.0331C64.969 50.0553 64.9577 50.084 64.9572 50.114L64.9752 53.379C64.9596 53.5424 65.0043 53.7059 65.1008 53.8386C65.1973 53.9714 65.339 54.0644 65.4992 54.1L66.1482 54.2C66.3102 54.221 66.4362 54.321 66.4362 54.441C66.4362 54.541 66.3102 54.581 66.1482 54.581H62.3622C62.2002 54.581 62.0742 54.541 62.0742 54.441C62.0742 54.321 62.2002 54.221 62.3622 54.2L63.0122 54.1C63.1722 54.0641 63.3136 53.9711 63.4097 53.8383C63.5059 53.7055 63.5501 53.5421 63.5342 53.379L63.5522 49.754L63.5342 46.167C63.5501 46.0038 63.5059 45.8404 63.4097 45.7076C63.3136 45.5749 63.1722 45.4818 63.0122 45.446L62.3622 45.346C62.2002 45.327 62.0742 45.226 62.0742 45.105C62.0742 45.005 62.2002 44.965 62.3622 44.965H66.1482C66.3102 44.965 66.4362 45.006 66.4362 45.105C66.4362 45.226 66.3102 45.326 66.1482 45.346L65.4992 45.446C65.339 45.4816 65.1973 45.5745 65.1008 45.7073C65.0043 45.8401 64.9596 46.0036 64.9752 46.167L64.9572 49.132C64.9577 49.1619 64.969 49.1906 64.9891 49.2129C65.0091 49.2351 65.0365 49.2493 65.0662 49.253H69.2262C69.2557 49.2491 69.2829 49.2348 69.3027 49.2126C69.3226 49.1904 69.3337 49.1617 69.3342 49.132L69.3162 46.167C69.3321 46.0035 69.2875 45.8399 69.191 45.7071C69.0944 45.5743 68.9526 45.4814 68.7922 45.446L68.1432 45.346C67.9812 45.327 67.8552 45.226 67.8552 45.105C67.8552 45.005 67.9812 44.965 68.1432 44.965H71.9292C72.0912 44.965 72.2172 45.006 72.2172 45.105C72.2172 45.226 72.0912 45.326 71.9292 45.346L71.2802 45.446C71.12 45.4816 70.9783 45.5745 70.8818 45.7073C70.7852 45.8401 70.7406 46.0036 70.7562 46.167L70.7382 49.754L70.7562 53.379C70.7406 53.5424 70.7852 53.7059 70.8818 53.8386C70.9783 53.9714 71.12 54.0644 71.2802 54.1L71.9292 54.2C72.0912 54.221 72.2172 54.321 72.2172 54.441C72.2172 54.541 72.0912 54.581 71.9292 54.581" fill="#161615"/>
<path d="M77.2185 54.581H73.4325C73.2705 54.581 73.1445 54.541 73.1445 54.441C73.1445 54.321 73.2705 54.221 73.4325 54.2L74.0815 54.1C74.2419 54.0646 74.3837 53.9717 74.4803 53.8388C74.5768 53.706 74.6214 53.5424 74.6055 53.379L74.6235 49.773L74.6055 46.167C74.6214 46.0035 74.5768 45.8399 74.4803 45.7071C74.3837 45.5743 74.2419 45.4814 74.0815 45.446L73.4325 45.346C73.2705 45.327 73.1445 45.226 73.1445 45.105C73.1445 45.005 73.2705 44.965 73.4325 44.965H77.2185C77.3805 44.965 77.5065 45.006 77.5065 45.105C77.5065 45.226 77.3805 45.326 77.2185 45.346L76.5695 45.446C76.4092 45.4814 76.2673 45.5743 76.1708 45.7071C76.0743 45.8399 76.0297 46.0035 76.0455 46.167L76.0275 49.773L76.0455 53.379C76.0297 53.5424 76.0743 53.706 76.1708 53.8388C76.2673 53.9717 76.4092 54.0646 76.5695 54.1L77.2185 54.2C77.3805 54.221 77.5065 54.321 77.5065 54.441C77.5065 54.541 77.3805 54.581 77.2185 54.581Z" fill="#161615"/>
<path d="M82.5353 46.8839C82.5298 46.8667 82.519 46.8517 82.5045 46.8411C82.4899 46.8304 82.4723 46.8247 82.4543 46.8247C82.4362 46.8247 82.4187 46.8304 82.4041 46.8411C82.3895 46.8517 82.3788 46.8667 82.3733 46.8839L81.0193 50.9339C81.0106 50.9515 81.0068 50.9712 81.0081 50.9907C81.0095 51.0103 81.0159 51.0292 81.0269 51.0456C81.0378 51.0619 81.0528 51.075 81.0705 51.0837C81.0881 51.0923 81.1077 51.0962 81.1273 51.0949H83.9193C84.0093 51.0949 84.0453 51.0139 84.0273 50.9339L82.5353 46.8839ZM87.5123 54.5759H84.1583C83.9963 54.5759 83.8703 54.5359 83.8703 54.4359C83.8703 54.3159 83.9963 54.2159 84.1583 54.1759L84.5743 54.0759C84.8083 54.0159 84.9523 53.9149 84.9523 53.7159C84.9491 53.62 84.9308 53.5252 84.8983 53.4349L84.3563 51.9519C84.3434 51.915 84.3189 51.8833 84.2864 51.8615C84.254 51.8397 84.2153 51.8289 84.1763 51.8309H80.8593C80.8172 51.8257 80.7746 51.8348 80.7383 51.8568C80.7021 51.8787 80.6742 51.9122 80.6593 51.9519L80.0813 53.6939C80.0445 53.7973 80.0203 53.9047 80.0093 54.0139C80.0105 54.0631 80.0245 54.1111 80.0497 54.1533C80.0749 54.1955 80.1106 54.2305 80.1533 54.2549C80.2073 54.2949 80.2793 54.3549 80.2793 54.4349C80.2793 54.5549 80.1353 54.5749 79.9733 54.5749H78.0263C77.8643 54.5749 77.7383 54.5349 77.7383 54.4349C77.7383 54.3149 77.8823 54.2549 78.0263 54.1939L78.3683 54.0739C78.4757 54.0441 78.5751 53.9909 78.6595 53.9181C78.7438 53.8453 78.8111 53.7547 78.8563 53.6529L82.1723 44.9189C82.2083 44.8189 82.4423 44.7589 82.6423 44.7589C82.8423 44.7589 83.0743 44.8189 83.1283 44.9189L86.6083 53.6729C86.6498 53.7768 86.7155 53.8693 86.8001 53.9425C86.8846 54.0158 86.9855 54.0677 87.0943 54.0939L87.5083 54.1939C87.6523 54.2339 87.7963 54.3149 87.7963 54.4349C87.7963 54.5349 87.6523 54.5749 87.5083 54.5749" fill="#161615"/>
<path d="M97.1627 41.9229H95.4137C95.2711 41.9235 95.1338 41.977 95.0285 42.0731C94.9232 42.1692 94.8573 42.301 94.8437 42.4429L94.8247 47.8219L94.8437 52.5459C94.8437 53.3829 95.5357 53.6989 96.7157 53.6989C99.8477 53.6989 100.5 50.1499 100.5 47.3699C100.5 43.2559 98.9337 41.9229 97.1627 41.9229ZM96.8987 54.5809H91.8337C91.6497 54.5809 91.5077 54.5359 91.5077 54.4229C91.5077 54.2879 91.6697 54.1959 91.8337 54.1509L92.4647 54.0159C92.6758 53.9482 92.8574 53.8103 92.9793 53.6251C93.1012 53.4399 93.156 53.2186 93.1347 52.9979L93.1557 47.8219L93.1347 42.6009C93.1595 42.3797 93.1061 42.1568 92.9837 41.9708C92.8613 41.7849 92.6777 41.6476 92.4647 41.5829L91.6307 41.4479C91.4467 41.4249 91.3047 41.3119 91.3047 41.1999C91.3047 41.0639 91.4467 41.0189 91.6307 41.0189H97.3677C99.9917 41.0189 102.413 43.1189 102.413 47.4839C102.413 51.2589 100.562 54.5839 96.8997 54.5839" fill="#161615"/>
<path d="M107.175 46.8839C107.169 46.8668 107.158 46.852 107.144 46.8415C107.129 46.831 107.111 46.8254 107.093 46.8254C107.075 46.8254 107.058 46.831 107.043 46.8415C107.029 46.852 107.018 46.8668 107.012 46.8839L105.661 50.9299C105.652 50.9476 105.648 50.9672 105.65 50.9867C105.651 51.0063 105.658 51.0252 105.669 51.0415C105.679 51.0579 105.695 51.071 105.712 51.0797C105.73 51.0883 105.749 51.0922 105.769 51.0909H108.563C108.653 51.0909 108.689 51.0099 108.671 50.9299L107.175 46.8839ZM112.15 54.5759H108.796C108.634 54.5759 108.508 54.5359 108.508 54.4359C108.508 54.3159 108.634 54.2159 108.796 54.1759L109.212 54.0759C109.446 54.0159 109.59 53.9149 109.59 53.7159C109.587 53.62 109.569 53.5252 109.536 53.4349L108.994 51.9519C108.981 51.915 108.957 51.8833 108.924 51.8615C108.892 51.8397 108.853 51.8289 108.814 51.8309H105.498C105.456 51.8257 105.413 51.8348 105.377 51.8568C105.341 51.8787 105.313 51.9122 105.298 51.9519L104.72 53.6939C104.683 53.7973 104.659 53.9047 104.648 54.0139C104.649 54.0631 104.663 54.1111 104.688 54.1533C104.714 54.1955 104.749 54.2305 104.792 54.2549C104.846 54.2949 104.918 54.3549 104.918 54.4349C104.918 54.5549 104.774 54.5749 104.612 54.5749H102.665C102.503 54.5749 102.377 54.5349 102.377 54.4349C102.377 54.3149 102.521 54.2549 102.665 54.1939L103.007 54.0739C103.114 54.0441 103.214 53.9909 103.298 53.9181C103.383 53.8453 103.45 53.7547 103.495 53.6529L106.811 44.9189C106.847 44.8189 107.083 44.7589 107.281 44.7589C107.479 44.7589 107.713 44.8189 107.767 44.9189L111.247 53.6729C111.288 53.7768 111.354 53.8693 111.439 53.9425C111.523 54.0158 111.624 54.0677 111.733 54.0939L112.147 54.1939C112.291 54.2339 112.435 54.3149 112.435 54.4349C112.435 54.5349 112.291 54.5749 112.147 54.5749" fill="#161615"/>
<path d="M116.207 54.784C115.017 54.784 114.278 54.503 113.377 54.464C113.325 54.4485 113.278 54.4202 113.24 54.3817C113.203 54.3433 113.175 54.2959 113.161 54.244L112.889 51.72C112.889 51.639 112.925 51.559 113.015 51.559C113.05 51.562 113.084 51.5749 113.113 51.596C113.142 51.6172 113.164 51.6459 113.178 51.679C113.313 52.3979 113.715 53.039 114.304 53.4739C114.892 53.9088 115.623 54.1053 116.35 54.024C117.396 54.024 118.315 53.583 118.315 52.481C118.315 49.737 112.96 50.618 112.96 47.333C112.948 46.9724 113.014 46.6135 113.154 46.281C113.293 45.9484 113.504 45.65 113.77 45.4063C114.036 45.1626 114.351 44.9794 114.695 44.8692C115.038 44.759 115.402 44.7245 115.76 44.768C117.183 44.768 117.96 45.009 118.824 45.049C118.95 45.07 119.04 45.129 119.04 45.269L119.058 47.834C119.061 47.8543 119.059 47.8752 119.053 47.8949C119.048 47.9146 119.037 47.9328 119.024 47.9481C119.01 47.9634 118.993 47.9755 118.974 47.9834C118.955 47.9914 118.934 47.995 118.914 47.994C118.88 47.9928 118.847 47.9803 118.821 47.9586C118.795 47.9369 118.777 47.9071 118.77 47.874C118.41 46.151 117.509 45.55 115.778 45.55C114.878 45.55 114.245 46.011 114.245 46.792C114.245 49.357 119.564 48.356 119.564 52.021C119.564 53.985 118.085 54.785 116.21 54.785" fill="#161615"/>
<path d="M134.029 54.33C134.017 54.3976 133.982 54.4591 133.931 54.5042C133.879 54.5493 133.813 54.5754 133.745 54.578H125.83C125.647 54.578 125.504 54.533 125.504 54.42C125.504 54.285 125.647 54.195 125.83 54.15C126.036 54.0793 126.212 53.9393 126.327 53.7537C126.442 53.5681 126.489 53.3484 126.461 53.132L126.482 47.775L126.461 42.575C126.486 42.3564 126.432 42.1361 126.309 41.9537C126.186 41.7713 126.002 41.6388 125.79 41.58L124.955 41.445C124.772 41.422 124.631 41.31 124.631 41.197C124.631 41.061 124.773 41.016 124.955 41.016H129.533C129.717 41.016 129.859 41.061 129.859 41.174C129.859 41.31 129.697 41.422 129.533 41.446L128.863 41.581C128.647 41.6437 128.46 41.7797 128.334 41.9655C128.207 42.1513 128.15 42.3753 128.171 42.599L128.15 47.775L128.171 53.269C128.179 53.3777 128.227 53.4797 128.306 53.5549C128.385 53.6301 128.489 53.6733 128.598 53.676L131.141 53.63C133.257 53.585 133.641 52.523 134.07 50.782C134.082 50.7097 134.115 50.6427 134.167 50.5903C134.218 50.5378 134.284 50.5025 134.356 50.489C134.478 50.489 134.58 50.624 134.518 51.009L134.029 54.33Z" fill="#161615"/>
<path d="M142.679 54.399C142.672 54.4506 142.646 54.4977 142.606 54.531C142.566 54.5643 142.515 54.5815 142.463 54.579H135.937C135.774 54.579 135.647 54.539 135.647 54.439C135.647 54.319 135.773 54.259 135.937 54.219C136.091 54.1773 136.225 54.0814 136.315 53.9487C136.404 53.8161 136.442 53.6557 136.423 53.497L136.441 49.752L136.423 46.165C136.439 46.0018 136.395 45.8385 136.298 45.7057C136.202 45.5729 136.061 45.4798 135.901 45.444L135.251 45.344C135.089 45.325 134.963 45.224 134.963 45.103C134.963 45.003 135.089 44.964 135.251 44.964H142.351C142.459 44.964 142.513 45.044 142.531 45.164L142.693 47.488C142.693 47.648 142.621 47.729 142.531 47.729C142.487 47.7198 142.446 47.6979 142.414 47.6659C142.382 47.6339 142.36 47.5933 142.351 47.549C141.792 46.086 141.413 45.686 140.134 45.686H138.259C138.159 45.6855 138.063 45.7221 137.989 45.7887C137.915 45.8552 137.869 45.947 137.859 46.046L137.841 48.99C137.841 49.0198 137.853 49.0484 137.872 49.0706C137.892 49.0928 137.919 49.1071 137.949 49.111L140.941 49.03C140.963 49.0275 140.985 49.0299 141.006 49.037C141.026 49.0442 141.045 49.056 141.061 49.0715C141.076 49.0869 141.088 49.1057 141.095 49.1264C141.103 49.1471 141.105 49.1692 141.103 49.191V49.932C141.103 50.032 141.049 50.112 140.941 50.092L137.931 50.012C137.877 50.012 137.841 50.092 137.841 50.152L137.859 53.578C137.864 53.6553 137.898 53.7277 137.955 53.78C138.012 53.8324 138.087 53.8607 138.165 53.859L140.418 53.819C142.059 53.798 142.347 52.997 142.689 51.775C142.698 51.7208 142.724 51.6707 142.763 51.6314C142.801 51.5921 142.851 51.5655 142.905 51.555C143.013 51.555 143.121 51.655 143.085 51.935L142.679 54.399Z" fill="#161615"/>
<path d="M152.091 47.629C152.001 47.629 151.911 47.509 151.891 47.369L151.711 46.448C151.679 46.2873 151.591 46.1431 151.463 46.0406C151.335 45.9381 151.175 45.8837 151.011 45.887L149.19 45.806C149.082 45.806 148.973 45.946 148.973 46.106L148.955 49.773L148.973 53.373C148.958 53.5365 149.002 53.7001 149.099 53.8331C149.195 53.966 149.337 54.0592 149.497 54.095L150.146 54.195C150.308 54.214 150.434 54.315 150.434 54.434C150.434 54.534 150.308 54.574 150.146 54.574H146.355C146.193 54.574 146.067 54.534 146.067 54.434C146.067 54.314 146.193 54.214 146.355 54.195L147.004 54.095C147.165 54.0594 147.306 53.9663 147.403 53.8333C147.5 53.7003 147.544 53.5365 147.528 53.373L147.546 49.773L147.528 46.107C147.528 45.946 147.42 45.807 147.312 45.807L145.491 45.888C145.328 45.8877 145.17 45.9432 145.042 46.0453C144.915 46.1473 144.826 46.2897 144.791 46.449L144.629 47.37C144.593 47.51 144.503 47.63 144.429 47.63C144.339 47.63 144.285 47.51 144.285 47.37V45.17C144.285 45.031 144.393 44.97 144.519 44.97H151.983C152.109 44.97 152.217 45.03 152.217 45.17V47.37C152.217 47.51 152.181 47.629 152.091 47.629Z" fill="#161615"/>
<path d="M157.771 45.6859H156.22C156.119 45.6821 156.019 45.7172 155.942 45.7841C155.866 45.851 155.817 45.9446 155.807 46.0459L155.788 49.1109C155.794 49.1847 155.827 49.2538 155.88 49.3054C155.933 49.3571 156.002 49.3878 156.076 49.3919H157.122C158.529 49.3919 159.429 48.8499 159.429 47.3479C159.441 47.1268 159.407 46.9055 159.327 46.6986C159.248 46.4917 159.127 46.3038 158.97 46.147C158.814 45.9901 158.626 45.868 158.419 45.7884C158.213 45.7088 157.992 45.6735 157.77 45.6849M162.57 54.3989C162.25 54.5276 161.906 54.5888 161.56 54.5789H160.187C160.116 54.5745 160.047 54.5493 159.99 54.5065C159.932 54.4638 159.888 54.4052 159.863 54.3379L157.916 50.5519C157.791 50.3129 157.683 50.0909 157.375 50.0909H156.06C155.99 50.0911 155.923 50.1184 155.872 50.167C155.821 50.2156 155.791 50.2818 155.788 50.3519L155.807 53.3759C155.804 53.539 155.856 53.6984 155.953 53.8291C156.051 53.9597 156.189 54.0543 156.346 54.0979L156.634 54.1779C156.778 54.2179 156.922 54.3179 156.922 54.4379C156.922 54.5379 156.797 54.5779 156.634 54.5779H153.877C153.716 54.5779 153.589 54.5379 153.589 54.4379C153.589 54.3179 153.716 54.2379 153.877 54.1969C154.032 54.1559 154.166 54.0602 154.256 53.9276C154.345 53.795 154.383 53.6346 154.363 53.4759L154.382 49.7699L154.363 46.1639C154.379 46.0008 154.335 45.8374 154.239 45.7046C154.143 45.5718 154.001 45.4788 153.841 45.4429L153.192 45.3429C153.029 45.3239 152.904 45.2229 152.904 45.1019C152.904 45.0019 153.029 44.9629 153.192 44.9629H158.277C158.608 44.9288 158.943 44.9628 159.26 45.0627C159.577 45.1626 159.871 45.3264 160.122 45.544C160.374 45.7617 160.578 46.0284 160.723 46.328C160.868 46.6276 160.949 46.9536 160.963 47.2859C160.957 47.9158 160.73 48.5234 160.321 49.0029C159.913 49.4824 159.349 49.8034 158.728 49.9099C158.639 49.9309 158.656 50.0099 158.692 50.0309C158.946 50.2248 159.155 50.4706 159.305 50.7519L161.144 53.6169C161.233 53.7628 161.357 53.8836 161.506 53.9678C161.654 54.052 161.822 54.0968 161.992 54.0979C162.157 54.0905 162.32 54.0633 162.478 54.0169C162.505 54.01 162.533 54.0096 162.56 54.0156C162.586 54.0216 162.611 54.0339 162.632 54.0515C162.654 54.0691 162.67 54.0915 162.681 54.1167C162.692 54.142 162.696 54.1695 162.694 54.1969C162.692 54.2382 162.68 54.2783 162.658 54.3134C162.636 54.3484 162.606 54.3772 162.569 54.3969" fill="#161615"/>
<path d="M168.175 46.8839C168.169 46.8668 168.158 46.852 168.144 46.8415C168.129 46.831 168.111 46.8254 168.093 46.8254C168.075 46.8254 168.058 46.831 168.043 46.8415C168.029 46.852 168.018 46.8668 168.012 46.8839L166.661 50.9299C166.652 50.9476 166.648 50.9672 166.65 50.9867C166.651 51.0063 166.658 51.0252 166.669 51.0415C166.679 51.0579 166.695 51.071 166.712 51.0797C166.73 51.0883 166.749 51.0922 166.769 51.0909H169.563C169.653 51.0909 169.689 51.0099 169.671 50.9299L168.175 46.8839ZM173.15 54.5759H169.796C169.634 54.5759 169.508 54.5359 169.508 54.4359C169.508 54.3159 169.634 54.2159 169.796 54.1759L170.212 54.0759C170.446 54.0159 170.59 53.9149 170.59 53.7159C170.587 53.62 170.569 53.5252 170.536 53.4349L169.994 51.9519C169.981 51.915 169.957 51.8833 169.924 51.8615C169.892 51.8397 169.853 51.8289 169.814 51.8309H166.498C166.456 51.8257 166.413 51.8348 166.377 51.8568C166.341 51.8787 166.313 51.9122 166.298 51.9519L165.72 53.6939C165.683 53.7973 165.659 53.9047 165.648 54.0139C165.649 54.0631 165.663 54.1111 165.688 54.1533C165.714 54.1955 165.749 54.2305 165.792 54.2549C165.846 54.2949 165.918 54.3549 165.918 54.4349C165.918 54.5549 165.774 54.5749 165.612 54.5749H163.665C163.503 54.5749 163.377 54.5349 163.377 54.4349C163.377 54.3149 163.521 54.2549 163.665 54.1939L164.007 54.0739C164.114 54.0439 164.214 53.9906 164.298 53.9179C164.382 53.8451 164.45 53.7546 164.495 53.6529L167.811 44.9189C167.847 44.8189 168.081 44.7589 168.281 44.7589C168.481 44.7589 168.713 44.8189 168.767 44.9189L172.246 53.6729C172.288 53.7768 172.354 53.8692 172.439 53.9424C172.524 54.0157 172.625 54.0676 172.734 54.0939L173.148 54.1939C173.292 54.2339 173.436 54.3149 173.436 54.4349C173.436 54.5349 173.292 54.5749 173.148 54.5749" fill="#161615"/>
<path d="M177.208 54.784C176.018 54.784 175.279 54.503 174.377 54.464C174.325 54.4485 174.278 54.4202 174.24 54.3817C174.203 54.3433 174.175 54.2959 174.161 54.244L173.891 51.72C173.891 51.639 173.927 51.559 174.017 51.559C174.052 51.5621 174.086 51.575 174.115 51.5962C174.143 51.6173 174.165 51.646 174.179 51.679C174.314 52.3983 174.717 53.0397 175.305 53.4746C175.894 53.9095 176.625 54.1058 177.353 54.024C178.399 54.024 179.318 53.583 179.318 52.481C179.318 49.737 173.963 50.618 173.963 47.333C173.951 46.9724 174.017 46.6135 174.157 46.281C174.296 45.9484 174.507 45.65 174.773 45.4063C175.039 45.1626 175.354 44.9794 175.698 44.8692C176.041 44.759 176.404 44.7245 176.763 44.768C178.186 44.768 178.963 45.009 179.827 45.049C179.953 45.07 180.043 45.129 180.043 45.269L180.061 47.834C180.064 47.8543 180.062 47.8752 180.056 47.8949C180.051 47.9146 180.04 47.9328 180.027 47.9481C180.013 47.9634 179.996 47.9755 179.977 47.9834C179.958 47.9914 179.937 47.995 179.917 47.994C179.883 47.9926 179.85 47.9801 179.824 47.9584C179.798 47.9367 179.78 47.907 179.773 47.874C179.413 46.151 178.512 45.55 176.781 45.55C175.881 45.55 175.248 46.011 175.248 46.792C175.248 49.357 180.567 48.356 180.567 52.021C180.567 53.985 179.088 54.785 177.213 54.785" fill="#161615"/>
<path d="M69.609 25.0859C69.609 24.9261 69.5616 24.7699 69.4728 24.637C69.384 24.5042 69.2578 24.4006 69.1102 24.3395C68.9626 24.2783 68.8001 24.2623 68.6434 24.2935C68.4866 24.3247 68.3427 24.4016 68.2297 24.5146C68.1167 24.6276 68.0397 24.7716 68.0085 24.9283C67.9773 25.0851 67.9933 25.2475 68.0545 25.3952C68.1157 25.5428 68.2192 25.669 68.3521 25.7578C68.485 25.8466 68.6412 25.8939 68.801 25.8939C69.0152 25.8937 69.2206 25.8085 69.372 25.657C69.5235 25.5055 69.6087 25.3002 69.609 25.0859ZM70.792 25.0579L70.618 25.9809H71.772L70.792 25.0579ZM71.022 35.5579C71.1456 35.9938 71.2418 36.437 71.31 36.8849C73.0084 36.4828 74.5971 35.7107 75.9627 34.6238C77.3283 33.5369 78.4371 32.1619 79.21 30.5969L77.883 30.2509C77.1946 31.5822 76.2236 32.7469 75.0379 33.6636C73.8523 34.5803 72.4807 35.2268 71.019 35.5579M109.767 35.6929C109.806 35.6929 109.825 36.9999 109.825 36.9999C111.85 36.8433 113.798 36.1605 115.478 35.0189L114.671 34.0189C113.225 35.0211 111.528 35.6004 109.771 35.6919M103.589 15.5109L104.079 16.6939C106.207 15.5083 108.689 15.1257 111.075 15.6156C113.46 16.1055 115.591 17.4354 117.079 19.3635C118.567 21.2916 119.314 23.6897 119.184 26.1217C119.053 28.5538 118.054 30.8582 116.368 32.6159C116.426 32.6739 117.407 33.3659 117.349 33.3079C121.041 30.0779 121.656 22.4949 117.79 18.2079C116.079 16.2159 113.742 14.8639 111.162 14.3734C108.583 13.8829 105.913 14.2829 103.59 15.5079M104.196 35.8999C104.404 35.512 104.577 35.1068 104.715 34.6889C102.379 33.8809 99.115 30.4769 98.876 25.9209C98.826 24.3249 99.1506 22.7393 99.8239 21.2913C100.497 19.8434 101.5 18.5733 102.753 17.5829C102.753 17.6409 102.176 16.3439 102.176 16.3439C100.628 17.5138 99.4002 19.0544 98.6044 20.8236C97.8085 22.5928 97.4707 24.5339 97.622 26.4679C98.051 31.4429 101.714 35.0349 104.196 35.8999ZM63.996 16.7559L67.471 24.0349L64.824 16.2609L63.996 16.7559ZM65.816 22.2969L63.539 16.9239L61.802 18.0819L65.816 22.2969ZM66.479 24.1579L61.433 18.4519L60.275 19.9409L66.479 24.1579ZM66.147 24.5719L59.862 20.6839L59.408 21.8009L66.147 24.5719ZM58.828 25.2719L66.395 25.5199L59.195 22.6669L58.828 25.2719ZM64.328 26.3469L58.994 26.3059L59.325 28.0849L64.328 26.3469ZM65.028 26.7609L59.362 28.6219L59.982 29.9859L65.028 26.7609ZM64.738 27.8359L60.271 30.4829L61.057 31.6829L64.738 27.8359ZM67.338 26.4719L61.507 32.2189L62.293 33.0049L67.338 26.4719ZM66.138 29.3249L62.913 33.4189L63.367 33.7499L66.138 29.3249ZM67.462 28.5399L63.823 33.9149L65.105 34.5349L67.462 28.5399ZM67.999 28.7049L65.725 34.7839L66.552 35.0739L67.999 28.7049ZM68.699 28.2919L67.044 35.2389L68.492 35.4049L68.699 28.2919ZM69.236 35.3209L70.146 35.2389L69.485 27.0519L69.236 35.3209ZM72.917 34.2209L70.317 28.5779L70.855 34.9869L72.917 34.2209ZM73.84 33.8209C75.287 32.8594 76.4918 31.5759 77.36 30.0709L71.475 28.8009L73.84 33.8209ZM71.346 28.2909L77.646 29.5509L78.358 27.6669L70.765 26.8849L71.346 28.2909ZM71.76 23.4519C71.635 23.5339 78.243 23.3979 78.243 23.3589C78.0772 22.5099 77.7789 21.6923 77.359 20.9359C77.359 20.9359 71.884 23.3699 71.76 23.4519ZM72.916 22.0039L77.016 20.2819L76.439 19.3589L72.916 22.0039ZM71.262 22.2519L76.089 18.8969L74.653 17.4559L71.262 22.2519ZM70.518 21.7139L73.909 16.9999L72.874 16.3389L70.518 21.7139ZM69.649 22.2139L72.049 16.0139L71.056 15.6419L69.649 22.2139ZM69.193 20.8069L70.269 15.5559L69.277 15.3899L69.193 20.8069ZM68.449 21.3449L68.49 15.3899L67.29 15.5139L68.449 21.3449ZM67.911 22.7519L66.878 15.5979L65.43 16.0979L67.911 22.7519ZM107.576 23.1919L104.876 17.0299L104.328 17.2839L107.576 23.1919ZM103.776 20.2799L102.847 18.2119L102.173 18.8879L103.776 20.2799ZM104.576 22.1369L101.749 19.3949L101.284 19.8579L104.576 22.1369ZM104.111 22.8539L100.904 20.4059L100.524 21.2499L104.111 22.8539ZM100.236 21.8619L99.813 23.1699L105.968 24.5859L100.236 21.8619ZM99.697 23.8619L99.505 25.2079L106.305 25.3019L99.697 23.8619ZM105.841 26.0619L99.467 25.9779L99.621 27.3239L105.841 26.0619ZM105.631 26.7799L99.774 27.9399L100.389 29.6319L105.631 26.7799ZM105.715 27.6239L100.651 30.3239L101.327 31.3369L105.715 27.6239ZM101.875 32.0539L102.592 32.7719L106.052 28.4719L101.875 32.0539ZM103.141 33.1539L104.702 34.1669L106.854 28.9769L103.141 33.1539ZM105.589 34.5039L106.389 34.6309L107.824 28.8909L105.589 34.5039ZM106.939 34.9259L107.952 35.0109L108.585 29.3109L106.939 34.9259ZM109.555 35.1369L109.218 30.5799L108.585 35.0939L109.555 35.1369ZM111.623 34.5889L109.935 29.4829L110.483 35.0529L111.623 34.5889ZM112.297 34.5469L113.184 33.9989C113.184 33.9989 111.073 30.0739 110.821 29.5679L112.297 34.5469ZM110.947 28.0909L113.985 33.7459L114.828 33.0279L110.947 28.0909ZM112.382 28.5559L115.462 32.6069L116.012 31.9309L112.382 28.5559ZM116.682 31.0869L117.104 30.5809C117.104 30.5809 114.277 28.9349 114.151 28.8089L116.682 31.0869ZM116.176 29.7369L116.387 29.6519L112.587 27.2469L116.176 29.7369ZM115.121 27.8799L117.526 29.6949L117.906 29.0619L115.121 27.8799ZM118.343 27.8429L115.812 27.4209L118.132 28.4759L118.301 27.9689M115.432 26.4879L118.432 27.3319L118.473 26.7839L115.432 26.4879ZM113.011 25.3489L118.5 26.2129L118.539 25.1739L113.011 25.3489ZM112.378 24.6319H118.538L118.23 23.0929L112.378 24.6319ZM113.222 23.7029L117.922 22.4429L117.384 21.1739L113.222 23.7029ZM112.335 23.1969L116.977 20.5809L116.218 19.5679L112.335 23.1969ZM112.081 22.2249L115.836 19.1879L114.908 18.3009L112.081 22.2249ZM112.166 20.7059L114.275 17.7529L113.727 17.3729L112.166 20.7059ZM111.237 20.8319L113.094 17.0319L112.757 16.9059L111.237 20.8319ZM110.352 20.8319L111.744 16.5709L110.774 16.3169L110.352 20.8319ZM109.423 21.8869L109.93 16.1489L109.043 16.1069L109.423 21.8869ZM108.411 21.0019L108.111 16.1489L106.972 16.3599L108.411 21.0019ZM105.411 16.7819L107.901 22.0559L106.129 16.5289L105.411 16.7819ZM63.231 34.3249C61.7456 33.4252 60.5076 32.1697 59.6288 30.6717C58.75 29.1738 58.258 27.4807 58.1973 25.7451C58.1365 24.0094 58.5089 22.286 59.2809 20.7303C60.0528 19.1746 61.2 17.8357 62.6188 16.8342C64.0377 15.8328 65.6836 15.2004 67.408 14.9942C69.1323 14.788 70.8809 15.0144 72.4959 15.653C74.1109 16.2916 75.5415 17.3224 76.6585 18.6522C77.7755 19.9819 78.5438 21.569 78.894 23.2699L80.204 23.2079C79.8382 21.2778 78.9961 19.4695 77.7541 17.9474C76.5121 16.4252 74.9096 15.2374 73.0921 14.4917C71.2746 13.7461 69.2996 13.4662 67.3464 13.6776C65.3933 13.8889 63.5239 14.5847 61.9079 15.7019C60.2919 16.8191 58.9806 18.3222 58.0929 20.0747C57.2053 21.8273 56.7694 23.7738 56.825 25.7376C56.8805 27.7013 57.4257 29.6201 58.411 31.3197C59.3963 33.0193 60.7905 34.4459 62.467 35.4699L63.231 34.3249ZM78.851 27.6849C78.6941 28.382 78.4656 29.0609 78.169 29.7109L79.447 30.0759C79.7594 29.3514 79.9983 28.5973 80.16 27.8249L78.851 27.6849ZM109.63 24.3179C109.405 24.2121 109.155 24.1718 108.909 24.2017C108.662 24.2316 108.429 24.3305 108.236 24.4869L109.266 25.0089L108.816 25.9879L107.749 25.4579C107.739 25.6964 107.794 25.9331 107.908 26.1428C108.022 26.3525 108.191 26.5274 108.397 26.6488C108.602 26.7702 108.837 26.8336 109.075 26.8323C109.314 26.8309 109.548 26.7649 109.752 26.6411C109.956 26.5174 110.123 26.3407 110.235 26.1297C110.346 25.9187 110.399 25.6814 110.386 25.443C110.374 25.2047 110.297 24.9741 110.163 24.776C110.03 24.5779 109.846 24.4196 109.63 24.3179ZM83.997 7.11795L83.42 7.01795L82.939 7.11795L82.839 7.40595L83.129 7.69395L83.706 7.79395L84.283 7.69395L84.764 7.59395L84.664 7.01595L83.991 6.72795L83.997 7.11795ZM75.92 6.25295V6.73295L76.208 7.21395L76.689 7.50195L77.362 7.78995C77.6158 7.84264 77.8732 7.87607 78.132 7.88995H78.804C79.189 7.88995 79.094 7.78995 79.094 7.78995L79.479 7.68995L79.862 7.40195L80.055 7.01695L79.767 6.82495H79.189L78.709 6.72495L78.228 6.53295H77.94L77.459 6.43295L76.979 6.33295L76.594 6.23295L75.92 6.25295ZM80.401 30.3379C80.387 30.3639 82.51 31.0379 82.51 31.0379L82.348 30.7149L82.154 30.4239L82.09 30.2309L81.96 29.9389L81.767 29.5839L81.701 29.3249L81.601 29.0339L81.569 28.7749L81.537 28.4519L81.523 27.8609L81.169 27.7919C80.9587 28.655 80.7013 29.506 80.398 30.3409M98.567 1.10395H98.276L98.114 1.23295L98.05 1.52495L98.114 1.71795L98.244 1.84795L98.503 1.91195L98.762 1.87995L99.021 1.68595V1.39495L98.891 1.13595L98.567 1.10395ZM95.302 2.36495L95.238 2.65595L95.338 2.88095L95.565 3.07495L95.986 3.01095L96.211 2.84895L96.47 2.62195L97.117 1.94395L96.696 1.91195H96.373L96.114 1.94395L95.855 1.97595L95.532 2.03995L95.302 2.36495ZM100.345 5.59595L100.538 5.46695L100.732 5.33695L100.861 5.23695L101.055 5.04295L101.249 4.75195L101.378 4.49295L101.444 4.13795L101.412 3.84695L101.186 3.55595L100.927 3.32995L100.183 5.55995L100.345 5.59595ZM102.545 11.7379L101.997 12.0609L103.097 14.3319L103.55 14.1049L102.545 11.7379ZM101.285 10.4449L101.835 10.0899L100.349 6.01695L100.09 5.98495L99.864 6.21095L99.832 6.40395L101.285 10.4449ZM100.792 13.0049L99.581 9.60495L92.525 20.6969L100.792 13.0049ZM81.692 17.7509V18.1059L81.563 18.3969L81.401 18.6559L81.174 18.7859L80.917 18.8179L80.625 18.7179L80.334 18.5889L80.141 18.3619L79.882 17.9749L79.623 17.5539L79.106 16.7139L78.653 15.8739L77.653 14.0309C77.653 14.0309 77.308 14.5469 77.29 14.5599C78.2265 15.8992 79.05 17.3141 79.752 18.7899C80.3914 20.1111 80.9215 21.4823 81.337 22.8899L83.599 22.8239L80.011 10.3469L79.688 10.7339L81.692 17.7509ZM86.992 23.1819L88.769 23.9899L91.258 21.9209L86.992 23.1819ZM71.826 25.4459L81.82 26.1229L82.047 25.6069L71.826 25.4459ZM82.951 26.6719L83.951 26.7379L83.595 25.7679L82.951 26.6719ZM85.602 25.6719L85.634 26.3179L86.669 25.8329L85.602 25.6719ZM82.919 27.9019L82.887 28.1609V28.8389L82.987 29.1629L83.117 29.6149L83.278 29.9699L83.505 30.2619L83.796 30.5849L84.119 30.8759L84.442 31.1349L84.669 31.1989L84.217 29.3879L85.1 28.7099L85.866 31.5219L86.48 31.3279L85.768 28.6459L85.93 28.6139L86.092 28.4519L86.124 28.3229L86.156 28.1929V28.0639L86.092 27.9339L86.026 27.8049L85.833 27.7049L85.606 27.6409L85.38 27.7049L85.218 27.7689L85.1 27.9959V28.2869L84.217 28.3869L84.151 27.5469L82.923 27.7079L82.919 27.9019ZM88.091 27.8699L87.251 28.0309L86.826 29.5509L87.026 30.1969L87.381 30.0359L87.64 29.8739L87.867 29.7739L88.158 29.5149L88.288 29.3209L88.449 29.0619L88.579 28.8689L88.679 28.5769L88.711 28.0609L88.679 27.5109L88.55 27.0579L88.45 26.7669L87.836 26.0879L88.091 27.8699ZM54.5 21.9279L55.943 18.9479L57.384 16.6409C57.384 16.6409 60.173 12.5409 64.308 11.5409C66.2162 11.0054 68.2205 10.9069 70.172 11.2529C70.9559 11.4228 71.7268 11.6477 72.479 11.9259L74.115 12.5029L75.941 13.2729L79.403 8.46495L77.576 8.36495H76.423L75.365 8.26495L74.499 7.78395L74.019 6.91895V6.14895L74.692 5.66795L75.365 5.37995L76.135 5.27995L77 5.08795L77.77 4.79995L78.25 4.22295L78.731 3.74195L79.211 3.64195L79.596 3.74195L80.077 4.22295L80.365 4.60795L80.75 5.18495L81.23 5.56995L81.808 5.85795L82.865 6.04995L83.923 6.14995L85.097 6.43795L85.559 6.63095L86.039 6.91895L86.424 7.49595L86.324 7.88095L86.036 8.26595L85.556 8.45795L84.69 8.55795L83.825 8.65795L83.055 8.46595L82.094 8.36595L80.843 8.26595L84.498 21.5339L86.421 19.6109L87.094 19.4179L87.479 19.6109L87.864 19.9959L87.964 20.5729V21.1499L88.734 21.0499L89.504 20.7599L90.465 20.3759L90.945 19.7979L99.118 7.97095L99.018 7.20295L98.635 6.62595V6.04795L98.535 5.08695L98.823 4.70195L99.111 4.22195L99.399 3.54895L99.592 2.97095L99.784 2.49095L99.207 2.59095L98.726 2.69095L98.149 2.88395L97.476 3.17195L96.995 3.36395L96.515 3.55695L96.034 3.74895L95.264 3.84895L94.496 3.65595L94.303 2.88795V2.30395L94.593 1.63095L95.073 1.15095L95.746 0.669948L96.323 0.284948L97.093 0.0929482L97.574 0.284948L98.535 -0.00305176H100.746L101.323 0.284948L101.804 0.574948L102.381 4.32395L102.189 4.80495L101.901 5.09295L101.708 5.47795L101.516 5.76595L102.959 9.80395L103.439 9.99695L103.824 10.4769L103.924 10.8619L103.731 11.3419L104.597 13.5729C106.323 12.937 108.166 12.685 109.999 12.8343C111.833 12.9837 113.611 13.531 115.211 14.4379C117.124 15.4371 118.739 16.9233 119.894 18.7466C121.049 20.5699 121.702 22.6655 121.787 24.8219C121.966 27.6016 121.215 30.3619 119.653 32.6679C118.31 34.7262 116.381 36.334 114.114 37.2829C111.714 38.3902 109.01 38.6545 106.441 38.0329C103.79 37.4891 101.372 36.1387 99.519 34.1669C97.8764 32.3311 96.7773 30.0742 96.345 27.6489C96.0141 25.2246 96.3326 22.7559 97.268 20.4949C98.2025 18.3503 99.6976 16.497 101.596 15.1299L101.364 14.2649L89.98 25.0919C89.98 25.0919 90.249 25.1289 90.846 26.4369C91.0784 26.9845 91.1981 27.5732 91.1981 28.1679C91.1981 28.7627 91.0784 29.3514 90.846 29.8989C90.5274 30.6203 90.0309 31.2489 89.403 31.7259C88.8081 32.1074 88.1601 32.3989 87.48 32.5909V34.5139L85.095 36.5329L84.495 36.3409L84.11 35.8599L83.822 35.2829L83.722 34.8979L83.529 34.3209L85.356 32.5899L80.184 30.8779C79.4637 32.3959 78.4655 33.7655 77.241 34.9159C74.8901 36.8941 71.9463 38.0312 68.876 38.1469C65.6617 38.2058 62.539 37.0755 60.107 34.9729C58.0663 33.1004 56.6557 30.6417 56.069 27.9349C55.8263 25.9762 55.885 23.9919 56.243 22.0509L54.5 21.9279Z" fill="#161615"/>
</g>
<defs>
<clipPath id="clip0_6_2">
<rect width="180.818" height="54.809" fill="white"/>
</clipPath>
</defs>
</svg>
