<svg width="110" height="87" viewBox="0 0 110 87" fill="none" xmlns="http://www.w3.org/2000/svg">
<path d="M49.4713 1.12354C46.3204 1.66723 44.0574 2.29677 41.4794 3.38414C38.9873 4.41429 33.5448 7.4475 31.6256 8.84964C29.6778 10.2804 27.6727 14.1148 26.1545 19.4086C24.3785 25.5037 25.6962 33.8021 29.5632 40.7556C32.1985 45.5343 32.2558 45.7632 31.5397 51.5435C31.3678 53.0315 31.3678 53.0887 32.5136 54.2047C33.774 55.4638 34.4615 55.6068 36.1515 54.8915C37.0395 54.5195 37.4692 54.4909 38.529 54.777C40.9924 55.3779 42.3101 56.8945 42.3101 59.1265C42.3101 60.3856 42.6825 61.0723 43.37 61.0723C43.5705 61.0723 43.7423 60.8148 43.7423 60.5C43.7423 59.4699 44.2293 59.8991 44.6017 61.244C44.9741 62.5317 45.6329 63.0754 46.7787 63.0754C47.4661 63.0754 48.3828 61.3299 48.2109 60.2711C48.0963 59.4985 48.1536 59.3554 48.6119 59.3554C49.1275 59.3554 49.1562 59.5557 49.1275 61.616C49.0702 64.7351 49.8437 65.5649 51.591 64.1914C52.5363 63.4474 53.1664 63.6477 53.3669 64.7923C53.5675 65.7939 53.5961 65.7939 54.7992 66.0514C55.5726 66.2231 55.7158 66.1372 56.0882 65.3074C56.6324 64.0197 57.4918 63.8766 57.4918 65.0499C57.4918 66.1086 57.8355 66.3375 59.0959 66.1086L60.0698 65.9083V64.2486C60.0698 62.6462 60.0985 62.5603 60.8719 62.4173C61.3015 62.3314 61.6739 62.36 61.7312 62.4459C62.1895 63.7336 62.9056 64.6779 63.4212 64.7351C63.9941 64.8209 64.0514 64.6779 64.2233 62.8465L64.4238 60.9007L66.0852 60.1567C67.3456 59.613 67.9471 59.1265 68.4913 58.2394C69.4366 56.7515 70.0954 56.4939 73.0458 56.4939C76.1108 56.4939 77.4285 56.0933 78.7175 54.8056C80.1211 53.4321 80.6653 51.6293 80.0924 50.3989C79.8346 49.7694 79.6914 48.4244 79.6914 46.1352V42.7872L81.983 38.266L84.2746 33.7735L84.3605 31.0264C84.5037 26.8486 83.7303 19.6662 82.9283 17.6631C81.9543 15.2594 77.142 7.93396 75.5666 6.41735C72.9886 3.95645 68.0617 1.95338 62.6192 1.15216C58.9813 0.608471 52.5076 0.608471 49.4713 1.12354ZM45.7475 32.7719C46.9219 32.9436 48.5833 33.3729 49.414 33.7448C50.7316 34.3458 51.0181 34.6319 51.6196 35.9482C52.5363 37.9227 52.5076 38.2374 51.4191 39.4965C50.9035 40.0688 50.1587 41.1276 49.7577 41.8429C48.7838 43.6171 47.8099 44.2466 45.8907 44.4183C44.6017 44.5328 43.9715 44.4183 42.5965 43.7888C40.9924 43.0734 40.8206 43.0448 39.0733 43.3596C36.6385 43.8174 36.2947 43.6743 36.4952 42.2436C36.6098 41.4996 36.4093 40.2691 35.8651 38.5236C34.8911 35.1756 34.9771 34.2313 36.2661 33.4873C38.5577 32.171 40.3623 32.0279 45.7475 32.7719ZM70.5538 33.6018C70.8689 33.7448 71.9001 33.9165 72.8453 34.031C75.6525 34.3744 75.5379 34.2027 75.5379 38.5808V42.358L72.473 43.846C67.7179 46.1352 66.1998 45.9349 62.3614 42.4725C60.6141 40.8986 60.0125 40.1547 59.6688 39.1245C58.8381 36.6636 58.9813 36.4347 62.5046 34.8322C66.4576 33.0867 68.3195 32.8005 70.5538 33.6018ZM57.148 42.0719C57.5777 42.8159 58.6662 44.4183 59.5828 45.6488C61.3875 48.0238 61.8171 49.3974 61.2442 50.8281C61.0151 51.4863 60.7573 51.6293 60.0125 51.6293C59.4969 51.6293 58.5516 51.3718 57.9215 51.0284C56.833 50.4561 56.7757 50.4561 55.945 50.9426C55.458 51.2001 54.8278 51.6866 54.5414 51.9727C53.9685 52.5736 53.3669 52.4878 51.9061 51.658C51.104 51.2001 51.0467 51.0284 51.0754 49.6549C51.1327 48.1383 51.3618 47.5946 53.9112 42.8159C55.3148 40.2119 55.945 40.0688 57.148 42.0719Z" fill="black"/>
<path d="M33.373 78.6993C33.2298 78.8137 33.1438 79.987 33.1438 81.2746C33.1438 84.4795 33.0865 84.5368 29.1622 84.5368C27.1284 84.5368 25.9254 84.4223 25.6389 84.1934C25.3811 83.9931 24.8942 82.9057 24.5504 81.8183C23.7197 79.3002 23.5765 79.0999 22.2588 79.0999C20.9125 79.0999 20.4256 79.6436 19.6522 81.9328C18.8215 84.3651 18.4491 84.5654 14.7826 84.4795L11.8035 84.3937L11.5744 82.8199C11.1734 80.0442 10.1135 79.0999 7.07717 78.871C4.38457 78.6993 4.2127 78.871 4.2127 81.7039C4.2127 84.2792 4.01219 84.5368 1.80655 84.5368C1.09043 84.5368 0.488892 84.6512 0.488892 84.8229C0.488892 84.9946 1.23365 85.1091 2.17893 85.1091C3.75439 85.1091 3.92625 85.1663 4.35592 85.9103C4.81424 86.6829 4.92882 86.7115 6.61885 86.5971C7.70735 86.5398 8.88178 86.2251 9.68383 85.8245C10.8869 85.1949 11.3166 85.1663 14.6967 85.1949C18.1054 85.2522 18.3918 85.2808 18.3059 85.7672C18.2199 86.2251 18.3345 86.2823 19.1652 86.1106C19.6808 85.9961 20.2251 85.71 20.3397 85.5097C20.5975 85.0518 23.4046 84.9374 23.863 85.3666C24.0062 85.4811 24.4645 85.6814 24.9228 85.7958C25.4957 85.9389 25.6962 85.8817 25.6962 85.5383C25.6962 85.1663 26.2691 85.1091 29.3054 85.1091C32.6855 85.1091 32.9147 85.1377 33.0579 85.6814C33.1438 86.0248 33.373 86.1965 33.5449 86.1106C33.7167 86.0248 34.0891 85.8817 34.3755 85.7958C34.6906 85.6814 34.8625 85.3094 34.8625 84.7943C34.8625 83.0488 37.4692 83.0488 37.8702 84.7943C37.9848 85.338 38.1853 85.5955 38.4431 85.5097C38.6436 85.4238 38.9014 85.5097 39.016 85.6814C39.1592 85.9103 39.3024 85.8531 39.5316 85.5669C39.818 85.1949 40.5342 85.1091 43.0835 85.0805C46.4636 85.0518 46.8933 85.1377 46.8933 85.8817C46.8933 86.1965 47.0651 86.2823 47.5521 86.1392C47.8958 86.0534 48.3542 85.9675 48.5547 85.9675C48.7552 85.9675 48.8984 85.5383 48.8984 84.8229C48.8984 84.1934 49.013 83.6783 49.1276 83.6783C49.2708 83.6783 49.7864 84.2506 50.3306 84.966L51.2759 86.2537L52.1639 85.71C52.8514 85.3094 53.6534 85.1663 55.4867 85.1377C59.1818 85.1091 60.5854 85.338 60.8146 86.0248C60.9578 86.5398 61.187 86.5971 63.5072 86.4826C65.5983 86.4254 66.1998 86.2823 66.9159 85.7672C67.6893 85.1949 68.119 85.1091 70.6684 85.1091C72.6735 85.1091 73.8193 85.2522 74.3922 85.5383C74.8505 85.7672 75.3947 85.8817 75.6239 85.7958C75.853 85.71 76.1395 85.7958 76.2541 85.9675C76.4832 86.3109 77.5717 86.0534 77.8868 85.5669C78.0014 85.3952 79.405 85.2235 81.3528 85.1663L84.647 85.0518L85.1626 85.9103C85.5636 86.5971 85.8214 86.7688 86.3943 86.6829C86.7953 86.6257 87.7692 86.5112 88.514 86.4254C89.2874 86.3395 90.2613 85.9961 90.7196 85.6814C91.4071 85.1949 91.98 85.1091 94.9877 85.1091C98.3678 85.1091 98.4537 85.1091 98.912 85.8531C99.3703 86.5112 99.5136 86.5685 100.86 86.3968C103.552 86.082 105.901 85.6241 106.073 85.3666C106.159 85.2235 106.933 85.1091 107.792 85.1091C108.651 85.1091 109.339 84.966 109.339 84.8229C109.339 84.5654 106.302 84.3365 105.328 84.5368C105.099 84.594 104.011 84.6226 102.894 84.6512C101.204 84.6798 100.888 84.594 100.803 84.1648C100.717 83.7642 100.917 83.6783 101.805 83.6783C104.269 83.6783 104.67 82.0473 102.263 81.9042C101.261 81.8469 100.86 81.7039 100.803 81.3605C100.688 80.7023 101.375 80.502 102.55 80.8454C103.266 81.0457 103.782 80.9885 104.584 80.6737C105.672 80.2159 105.987 79.3002 105.157 78.9854C104.326 78.6707 99.7427 78.7851 99.3703 79.1571C99.1698 79.3574 99.0266 80.359 99.0266 81.6753C99.0266 82.9916 98.8834 83.9931 98.6829 84.1934C98.1959 84.6798 92.8966 84.6512 92.4956 84.1648C92.3524 83.9931 92.1519 83.1346 92.0946 82.3048C91.8654 79.8439 90.3759 78.8424 86.9958 78.8137C85.0193 78.8137 84.9048 78.9854 84.9334 81.618C84.9621 83.1919 84.8761 83.9931 84.6183 84.1648C84.4465 84.2792 82.6991 84.4509 80.7513 84.5368L77.2566 84.6798V82.5909C77.2566 81.3319 77.3712 80.5306 77.5717 80.5306C77.7436 80.5306 77.8295 80.1873 77.7722 79.7294C77.6863 79.014 77.6004 78.9568 76.2541 78.9568C74.9078 78.9568 74.8218 79.014 74.7359 79.7294C74.6786 80.1873 74.7645 80.5306 74.9364 80.5306C75.1369 80.5306 75.2515 81.2746 75.2515 82.3906C75.2515 84.6226 75.3374 84.594 70.8116 84.4795C67.8325 84.3937 67.6607 84.3651 67.5747 83.7928C67.4315 82.8771 66.6295 82.2476 64.7389 81.7039C62.8197 81.1316 62.476 80.4162 64.0801 80.359C67.2024 80.2445 67.0018 80.3017 66.8873 79.4433C66.8013 78.7279 66.7154 78.6707 65.2259 78.5848C62.1036 78.4131 59.898 80.0728 61.0437 81.8183C61.6166 82.7054 62.2468 83.0488 63.765 83.2777C65.054 83.478 65.7988 84.0789 65.3118 84.5654C65.1399 84.7371 62.8197 84.7657 58.6662 84.6226C52.3358 84.3937 52.2785 84.3651 51.7629 83.6783C50.9895 82.6768 51.0468 82.3906 52.3358 80.8454C53.7966 79.0999 53.8253 78.6707 52.4217 78.8996C51.6196 79.0427 51.0754 79.386 50.3879 80.2445C49.8437 80.874 49.2994 81.3891 49.1848 81.3891C49.0416 81.3891 48.8984 80.8454 48.8411 80.1586C48.7552 79.0427 48.6979 78.9568 47.8958 78.9568H47.0365L46.9506 81.5322C46.8933 83.1346 46.7501 84.1648 46.5209 84.3079C46.0912 84.594 40.5342 84.594 40.1618 84.3079C39.5029 83.85 39.2451 82.7054 39.6462 81.9614C40.1618 80.9313 40.1045 80.3876 39.3311 79.4719C38.6723 78.7279 38.4717 78.6707 36.0942 78.5848C34.7193 78.5276 33.4876 78.5848 33.373 78.6993ZM8.33753 80.9313C9.45468 81.3891 9.8557 82.5051 9.3401 83.7355C8.99636 84.5654 8.19431 84.9374 7.04852 84.7657C6.41834 84.6798 6.36105 84.5082 6.27512 82.9629C6.18918 81.618 6.27512 81.1888 6.67614 80.9026C7.30633 80.4448 7.19175 80.4448 8.33753 80.9313ZM37.727 81.246C37.727 81.9042 37.6124 81.9614 36.4666 81.9614C35.149 81.9614 34.6906 81.6466 34.9771 80.9599C35.0917 80.6737 35.55 80.5306 36.438 80.5306C37.6124 80.5306 37.727 80.5879 37.727 81.246ZM89.6598 81.3033C89.9462 81.5894 90.1467 82.1903 90.1467 82.8199C90.1467 84.1934 89.402 84.9088 88.0843 84.7657L87.1391 84.6798L87.0531 82.8485C86.9958 81.5608 87.0818 80.9313 87.3396 80.7596C87.8265 80.4448 89.001 80.731 89.6598 81.3033ZM22.7745 82.1903C23.1182 83.2205 22.8317 83.5639 21.7719 83.3349C21.2276 83.2205 21.2276 82.7626 21.7146 81.4463C22.0297 80.6165 22.3161 80.8168 22.7745 82.1903Z" fill="black"/>
</svg>
